<svg width="1522" height="284" viewBox="0 0 1522 284" fill="none" xmlns="http://www.w3.org/2000/svg">
<path d="M91.7727 222C64.5727 222 42.8727 215.8 26.6727 203.4C13.0993 192.711 4.27579 178.352 0.202097 160.322C-0.989253 155.049 3.23985 150.3 8.64553 150.3H28.1166C32.6173 150.3 36.3304 153.66 37.577 157.985C40.3387 167.565 45.7039 175.303 53.6727 181.2C63.6727 188.4 76.7727 192 92.9727 192C106.373 192 116.573 189.6 123.573 184.8C130.773 179.8 134.373 172.9 134.373 164.1C134.373 156.3 132.173 150 127.773 145.2C123.373 140.4 115.973 136.5 105.573 133.5L66.5727 121.8C46.7727 115.8 32.1727 107.9 22.7727 98.1C13.5727 88.3 8.97266 76 8.97266 61.2C8.97266 48.8 12.1727 38 18.5727 28.8C24.9727 19.6 33.9727 12.5 45.5727 7.49999C57.3727 2.5 71.0727 0 86.6727 0C110.673 0 129.773 5.9 143.973 17.7C155.929 27.3315 163.611 39.8584 167.019 55.2809C168.168 60.4801 163.952 65.1 158.628 65.1H138.573C134.228 65.1 130.596 61.9618 129.272 57.8238C126.6 49.4741 122.201 43.0995 116.073 38.7C108.273 32.9 97.7727 30 84.5727 30C72.9727 30 63.7727 32.3 56.9727 36.9C50.1727 41.5 46.7727 47.8 46.7727 55.8C46.7727 62.4 48.7727 68 52.7727 72.6C56.9727 77.2 64.6727 81.2 75.8727 84.6L115.473 96.6C135.273 102.4 149.673 110.3 158.673 120.3C167.673 130.3 172.173 143 172.173 158.4C172.173 178.8 165.073 194.5 150.873 205.5C136.873 216.5 117.173 222 91.7727 222Z" fill="#17B754"/>
<path d="M287.888 222.3C273.288 222.3 261.388 218.9 252.188 212.1C243.552 205.383 238.046 196.271 235.672 184.766C235.509 183.978 236.072 183.232 236.873 183.152C237.684 183.07 238.388 183.708 238.388 184.523V271.8C238.388 276.771 234.359 280.8 229.388 280.8H209.588C204.618 280.8 200.588 276.771 200.588 271.8V75.3C200.588 70.3294 204.618 66.3 209.588 66.3H228.488C233.459 66.3 237.488 70.3294 237.488 75.3V99.1518C237.488 100.004 236.708 100.644 235.872 100.477C235.118 100.326 234.64 99.5752 234.844 98.8336C237.81 88.0786 244.091 79.534 253.688 73.2C263.688 66.6 275.888 63.3 290.288 63.3C303.888 63.3 315.688 66.6 325.688 73.2C335.888 79.6 343.788 88.7 349.388 100.5C354.988 112.3 357.788 126.2 357.788 142.2C357.788 158.4 354.888 172.5 349.088 184.5C343.288 196.5 335.188 205.8 324.788 212.4C314.388 219 302.088 222.3 287.888 222.3ZM278.288 191.1C290.488 191.1 300.188 186.9 307.388 178.5C314.588 169.9 318.188 157.9 318.188 142.5C318.188 127.1 314.488 115.2 307.088 106.8C299.888 98.4 290.188 94.2 277.988 94.2C265.988 94.2 256.288 98.5 248.888 107.1C241.488 115.5 237.788 127.4 237.788 142.8C237.788 158.2 241.488 170.1 248.888 178.5C256.288 186.9 266.088 191.1 278.288 191.1Z" fill="#17B754"/>
<path d="M457.667 222.3C441.467 222.3 427.267 218.9 415.067 212.1C403.067 205.3 393.667 195.9 386.867 183.9C380.267 171.9 376.967 158.1 376.967 142.5C376.967 126.9 380.267 113.2 386.867 101.4C393.667 89.4 403.067 80.1 415.067 73.5C427.067 66.7 441.067 63.3 457.067 63.3C472.267 63.3 485.467 66.5 496.667 72.9C507.867 79.1 516.567 87.9 522.767 99.3C528.967 110.7 532.067 124 532.067 139.2C532.067 142 531.967 144.6 531.767 147C531.419 151.174 527.797 154.2 523.609 154.2H409.367C404.397 154.2 400.367 150.171 400.367 145.2V136.8C400.367 131.829 404.397 127.8 409.367 127.8H496.16C498.155 127.8 499.113 130.25 497.647 131.603C496.242 132.9 493.937 131.902 493.826 129.994C493.132 118.071 489.879 108.94 484.067 102.6C477.467 95.4 468.267 91.8 456.467 91.8C443.667 91.8 433.467 96.2 425.867 105C418.467 113.8 414.767 126.5 414.767 143.1C414.767 159.5 418.467 172.1 425.867 180.9C433.467 189.5 444.167 193.8 457.967 193.8C465.967 193.8 472.967 192.3 478.967 189.3C483.208 187.179 486.65 184.259 489.292 180.54C491.341 177.656 494.441 175.5 497.978 175.5H515.215C521.405 175.5 525.739 181.634 522.753 187.056C517.75 196.141 510.955 203.689 502.367 209.7C490.567 218.1 475.667 222.3 457.667 222.3Z" fill="#17B754"/>
<path d="M628.705 222.3C613.305 222.3 599.705 218.9 587.905 212.1C576.305 205.3 567.105 195.9 560.305 183.9C553.705 171.7 550.405 157.9 550.405 142.5C550.405 127.1 553.705 113.5 560.305 101.7C567.105 89.7 576.305 80.3 587.905 73.5C599.705 66.7 613.305 63.3 628.705 63.3C641.305 63.3 652.705 65.7 662.905 70.5C673.105 75.1 681.505 81.7 688.105 90.3C692.605 96.0276 695.989 102.406 698.258 109.436C699.96 114.708 695.683 119.7 690.143 119.7H671.308C667.236 119.7 663.784 116.906 662.075 113.21C659.685 108.043 656.261 103.807 651.805 100.5C645.605 95.9 638.105 93.6 629.305 93.6C621.105 93.6 614.005 95.6 608.005 99.6C602.205 103.6 597.705 109.3 594.505 116.7C591.305 124.1 589.705 132.7 589.705 142.5C589.705 152.5 591.305 161.2 594.505 168.6C597.705 176 602.305 181.8 608.305 186C614.305 190 621.305 192 629.305 192C638.105 192 645.605 189.7 651.805 185.1C656.261 181.793 659.685 177.557 662.075 172.39C663.784 168.694 667.236 165.9 671.308 165.9H690.143C695.683 165.9 699.958 170.892 698.239 176.159C695.927 183.246 692.449 189.726 687.805 195.6C681.205 204 672.805 210.6 662.605 215.4C652.605 220 641.305 222.3 628.705 222.3Z" fill="#17B754"/>
<path d="M735.432 219.3C730.461 219.3 726.432 215.271 726.432 210.3V12.3C726.432 7.32944 730.461 3.29999 735.432 3.29999H756.432C761.403 3.29999 765.432 7.32943 765.432 12.3V210.3C765.432 215.271 761.403 219.3 756.432 219.3H735.432ZM754.032 132.6C749.061 132.6 745.032 128.571 745.032 123.6V110.7C745.032 105.729 749.061 101.7 754.032 101.7H857.532C862.503 101.7 866.532 105.729 866.532 110.7V123.6C866.532 128.571 862.503 132.6 857.532 132.6H754.032ZM754.032 34.2C749.061 34.2 745.032 30.1706 745.032 25.2V12.3C745.032 7.32942 749.061 3.29999 754.032 3.29999H864.732C869.703 3.29999 873.732 7.32943 873.732 12.3V25.2C873.732 30.1706 869.703 34.2 864.732 34.2H754.032Z" fill="#17B754"/>
<path d="M969.505 222.3C953.305 222.3 939.005 218.9 926.605 212.1C914.405 205.3 904.905 195.9 898.105 183.9C891.305 171.7 887.905 157.8 887.905 142.2C887.905 126.6 891.305 112.9 898.105 101.1C904.905 89.3 914.405 80.1 926.605 73.5C939.005 66.7 953.305 63.3 969.505 63.3C985.905 63.3 1000.2 66.7 1012.4 73.5C1024.6 80.1 1034.1 89.3 1040.9 101.1C1047.7 112.9 1051.1 126.6 1051.1 142.2C1051.1 157.8 1047.6 171.7 1040.6 183.9C1033.8 195.9 1024.3 205.3 1012.1 212.1C999.905 218.9 985.705 222.3 969.505 222.3ZM969.505 192C977.505 192 984.705 190 991.105 186C997.505 181.8 1002.5 176 1006.1 168.6C1009.7 161 1011.5 152.1 1011.5 141.9C1011.5 126.9 1007.5 115.1 999.505 106.5C991.705 97.9 981.705 93.6 969.505 93.6C957.305 93.6 947.205 97.9 939.205 106.5C931.205 115.1 927.205 126.9 927.205 141.9C927.205 152.1 929.005 161 932.605 168.6C936.405 176 941.405 181.8 947.605 186C954.005 190 961.305 192 969.505 192Z" fill="#17B754"/>
<path d="M1087.91 219.3C1082.94 219.3 1078.91 215.271 1078.91 210.3V75.3C1078.91 70.3294 1082.94 66.3 1087.91 66.3H1106.81C1111.78 66.3 1115.81 70.3294 1115.81 75.3V102.75C1115.81 102.999 1116.01 103.2 1116.26 103.2C1116.51 103.2 1116.71 103.401 1116.71 103.65V210.3C1116.71 215.271 1112.68 219.3 1107.71 219.3H1087.91ZM1116.71 139.5L1112.99 104.908C1112.87 103.779 1112.96 102.635 1113.28 101.548C1116.94 89.3583 1122.88 80.009 1131.11 73.5C1139.71 66.7 1150.01 63.3 1162.01 63.3C1163.2 63.3 1164.29 63.3322 1165.29 63.3965C1168.84 63.6254 1171.01 66.7922 1171.01 70.3488V95.9337C1171.01 97.9771 1168.85 99.6 1166.81 99.6C1165.01 99.4 1162.81 99.3 1160.21 99.3C1145.61 99.3 1134.71 102.5 1127.51 108.9C1120.31 115.3 1116.71 125.5 1116.71 139.5Z" fill="#17B754"/>
<path d="M1259.78 283.8C1239.58 283.8 1222.98 279.4 1209.98 270.6C1200.24 263.901 1193.51 255.405 1189.79 245.112C1187.91 239.904 1192.2 234.9 1197.73 234.9H1216.77C1220.61 234.9 1223.86 237.494 1226.28 240.474C1228.37 243.058 1231.24 245.2 1234.88 246.9C1241.08 249.9 1249.08 251.4 1258.88 251.4C1273.08 251.4 1283.58 248.2 1290.38 241.8C1297.18 235.6 1300.58 226.1 1300.58 213.3V181.84C1300.58 181.05 1301.31 180.463 1302.08 180.634C1302.75 180.781 1303.17 181.436 1303.01 182.096C1300.44 192.742 1294.43 201.344 1284.98 207.9C1275.18 214.5 1263.18 217.8 1248.98 217.8C1235.38 217.8 1223.48 214.6 1213.28 208.2C1203.28 201.8 1195.48 192.9 1189.88 181.5C1184.28 169.9 1181.48 156.4 1181.48 141C1181.48 125.4 1184.38 111.8 1190.18 100.2C1195.98 88.6 1204.08 79.6 1214.48 73.2C1225.08 66.6 1237.38 63.3 1251.38 63.3C1265.78 63.3 1277.58 66.8 1286.78 73.8C1295.88 80.3856 1301.61 89.5036 1303.96 101.154C1304.09 101.775 1303.65 102.366 1303.02 102.445C1302.36 102.527 1301.78 102.013 1301.78 101.348V75.3C1301.78 70.3294 1305.81 66.3 1310.78 66.3H1329.68C1334.65 66.3 1338.68 70.3294 1338.68 75.3V213C1338.68 234.8 1331.58 252 1317.38 264.6C1303.38 277.4 1284.18 283.8 1259.78 283.8ZM1261.28 187.8C1273.48 187.8 1283.18 183.7 1290.38 175.5C1297.78 167.1 1301.48 155.4 1301.48 140.4C1301.48 125.4 1297.78 113.8 1290.38 105.6C1282.98 97.4 1273.18 93.3 1260.98 93.3C1248.98 93.3 1239.28 97.5 1231.88 105.9C1224.48 114.1 1220.78 125.7 1220.78 140.7C1220.78 155.7 1224.48 167.3 1231.88 175.5C1239.28 183.7 1249.08 187.8 1261.28 187.8Z" fill="#17B754"/>
<path d="M1447.61 222.3C1431.41 222.3 1417.21 218.9 1405.01 212.1C1393.01 205.3 1383.61 195.9 1376.81 183.9C1370.21 171.9 1366.91 158.1 1366.91 142.5C1366.91 126.9 1370.21 113.2 1376.81 101.4C1383.61 89.4 1393.01 80.1 1405.01 73.5C1417.01 66.7 1431.01 63.3 1447.01 63.3C1462.21 63.3 1475.41 66.5 1486.61 72.9C1497.81 79.1 1506.51 87.9 1512.71 99.3C1518.91 110.7 1522.01 124 1522.01 139.2C1522.01 142 1521.91 144.6 1521.71 147C1521.36 151.174 1517.74 154.2 1513.55 154.2H1399.31C1394.34 154.2 1390.31 150.171 1390.31 145.2V136.8C1390.31 131.829 1394.34 127.8 1399.31 127.8H1486.1C1488.1 127.8 1489.05 130.25 1487.59 131.604C1486.18 132.9 1483.88 131.902 1483.77 129.994C1483.07 118.071 1479.82 108.94 1474.01 102.6C1467.41 95.4 1458.21 91.8 1446.41 91.8C1433.61 91.8 1423.41 96.2 1415.81 105C1408.41 113.8 1404.71 126.5 1404.71 143.1C1404.71 159.5 1408.41 172.1 1415.81 180.9C1423.41 189.5 1434.11 193.8 1447.91 193.8C1455.91 193.8 1462.91 192.3 1468.91 189.3C1473.15 187.179 1476.59 184.259 1479.23 180.54C1481.28 177.656 1484.38 175.5 1487.92 175.5H1505.16C1511.35 175.5 1515.68 181.634 1512.69 187.056C1507.69 196.141 1500.9 203.689 1492.31 209.7C1480.51 218.1 1465.61 222.3 1447.61 222.3Z" fill="#17B754"/>
</svg>
